<svg width="2000" height="2000" viewBox="0 0 2000 2000" fill="none" xmlns="http://www.w3.org/2000/svg">
<circle cx="1000" cy="1000" r="995.5" fill="#D7EBEA" stroke="#6FC6EC" stroke-width="9"/>
<path d="M1970.5 1000C1970.5 1535.99 1535.99 1970.5 1000 1970.5C464.008 1970.5 29.5 1535.99 29.5 1000C29.5 464.008 464.008 29.5 1000 29.5C1535.99 29.5 1970.5 464.008 1970.5 1000Z" fill="#D7EBEA" stroke="#6FC6EC" stroke-width="9"/>
<path d="M1945.5 1000C1945.5 1522.19 1522.19 1945.5 1000 1945.5C477.815 1945.5 54.5 1522.19 54.5 1000C54.5 477.815 477.815 54.5 1000 54.5C1522.19 54.5 1945.5 477.815 1945.5 1000Z" fill="#D7EBEA" stroke="#6FC6EC" stroke-width="9"/>
<path d="M1920.5 1000C1920.5 1508.38 1508.38 1920.5 1000 1920.5C491.622 1920.5 79.5 1508.38 79.5 1000C79.5 491.622 491.622 79.5 1000 79.5C1508.38 79.5 1920.5 491.622 1920.5 1000Z" fill="#D7EBEA" stroke="#6FC6EC" stroke-width="9"/>
<path d="M1895.5 1000C1895.5 1494.57 1494.57 1895.5 1000 1895.5C505.429 1895.5 104.5 1494.57 104.5 1000C104.5 505.429 505.429 104.5 1000 104.5C1494.57 104.5 1895.5 505.429 1895.5 1000Z" fill="#D7EBEA" stroke="#6FC6EC" stroke-width="9"/>
<circle cx="1000" cy="1000" r="870.5" fill="#D7EBEA" stroke="#6FC6EC" stroke-width="9"/>
<path d="M1845.5 1000C1845.5 1466.96 1466.96 1845.5 1000 1845.5C533.043 1845.5 154.5 1466.96 154.5 1000C154.5 533.043 533.043 154.5 1000 154.5C1466.96 154.5 1845.5 533.043 1845.5 1000Z" fill="#D7EBEA" stroke="#6FC6EC" stroke-width="9"/>
<path d="M1820.5 1000C1820.5 1453.15 1453.15 1820.5 1000 1820.5C546.85 1820.5 179.5 1453.15 179.5 1000C179.5 546.85 546.85 179.5 1000 179.5C1453.15 179.5 1820.5 546.85 1820.5 1000Z" fill="#D7EBEA" stroke="#6FC6EC" stroke-width="9"/>
<path d="M1795.5 1000C1795.5 1439.34 1439.34 1795.5 1000 1795.5C560.658 1795.5 204.5 1439.34 204.5 1000C204.5 560.657 560.658 204.5 1000 204.5C1439.34 204.5 1795.5 560.657 1795.5 1000Z" fill="#D7EBEA" stroke="#6FC6EC" stroke-width="9"/>
<path d="M1770.5 1000C1770.5 1425.54 1425.54 1770.5 1000 1770.5C574.465 1770.5 229.5 1425.54 229.5 1000C229.5 574.465 574.465 229.5 1000 229.5C1425.54 229.5 1770.5 574.465 1770.5 1000Z" fill="#D7EBEA" stroke="#6FC6EC" stroke-width="9"/>
<circle cx="1000" cy="1000" r="745.5" fill="#D7EBEA" stroke="#6FC6EC" stroke-width="9"/>
<path d="M1720.5 1000C1720.5 1397.92 1397.92 1720.5 1000 1720.5C602.079 1720.5 279.5 1397.92 279.5 1000C279.5 602.079 602.079 279.5 1000 279.5C1397.92 279.5 1720.5 602.079 1720.5 1000Z" fill="#D7EBEA" stroke="#6FC6EC" stroke-width="9"/>
<path d="M1695.5 1000C1695.5 1384.11 1384.11 1695.5 1000 1695.5C615.886 1695.5 304.5 1384.11 304.5 1000C304.5 615.886 615.886 304.5 1000 304.5C1384.11 304.5 1695.5 615.886 1695.5 1000Z" fill="#D7EBEA" stroke="#6FC6EC" stroke-width="9"/>
<path d="M1670.5 1000C1670.5 1370.31 1370.31 1670.5 1000 1670.5C629.693 1670.5 329.5 1370.31 329.5 1000C329.5 629.693 629.693 329.5 1000 329.5C1370.31 329.5 1670.5 629.693 1670.5 1000Z" fill="#D7EBEA" stroke="#6FC6EC" stroke-width="9"/>
<path d="M1645.5 1000C1645.5 1356.5 1356.5 1645.5 1000 1645.5C643.5 1645.5 354.5 1356.5 354.5 1000C354.5 643.5 643.5 354.5 1000 354.5C1356.5 354.5 1645.5 643.5 1645.5 1000Z" fill="#D7EBEA" stroke="#6FC6EC" stroke-width="9"/>
<circle cx="1000" cy="1000" r="620.5" fill="#D7EBEA" stroke="#6FC6EC" stroke-width="9"/>
<path d="M1595.5 1000C1595.5 1328.89 1328.89 1595.5 1000 1595.5C671.114 1595.5 404.5 1328.89 404.5 1000C404.5 671.114 671.114 404.5 1000 404.5C1328.89 404.5 1595.5 671.114 1595.5 1000Z" fill="#D7EBEA" stroke="#6FC6EC" stroke-width="9"/>
<path d="M1570.5 1000C1570.5 1315.08 1315.08 1570.5 1000 1570.5C684.922 1570.5 429.5 1315.08 429.5 1000C429.5 684.922 684.922 429.5 1000 429.5C1315.08 429.5 1570.5 684.922 1570.5 1000Z" fill="#D7EBEA" stroke="#6FC6EC" stroke-width="9"/>
<path d="M1545.5 1000C1545.5 1301.27 1301.27 1545.5 1000 1545.5C698.729 1545.5 454.5 1301.27 454.5 1000C454.5 698.729 698.729 454.5 1000 454.5C1301.27 454.5 1545.5 698.729 1545.5 1000Z" fill="#D7EBEA" stroke="#6FC6EC" stroke-width="9"/>
<path d="M1520.5 1000C1520.5 1287.46 1287.46 1520.5 1000 1520.5C712.536 1520.5 479.5 1287.46 479.5 1000C479.5 712.536 712.536 479.5 1000 479.5C1287.46 479.5 1520.5 712.536 1520.5 1000Z" fill="#D7EBEA" stroke="#6FC6EC" stroke-width="9"/>
<circle cx="1000" cy="1000" r="495.5" fill="#D7EBEA" stroke="#6FC6EC" stroke-width="9"/>
<path d="M1470.5 1000C1470.5 1259.85 1259.85 1470.5 1000 1470.5C740.15 1470.5 529.5 1259.85 529.5 1000C529.5 740.15 740.15 529.5 1000 529.5C1259.85 529.5 1470.5 740.15 1470.5 1000Z" fill="#D7EBEA" stroke="#6FC6EC" stroke-width="9"/>
<path d="M1445.5 1000C1445.5 1246.04 1246.04 1445.5 1000 1445.5C753.957 1445.5 554.5 1246.04 554.5 1000C554.5 753.957 753.957 554.5 1000 554.5C1246.04 554.5 1445.5 753.957 1445.5 1000Z" fill="#D7EBEA" stroke="#6FC6EC" stroke-width="9"/>
<path d="M1445.5 1000C1445.5 1246.04 1246.04 1445.5 1000 1445.5C753.957 1445.5 554.5 1246.04 554.5 1000C554.5 753.957 753.957 554.5 1000 554.5C1246.04 554.5 1445.5 753.957 1445.5 1000Z" fill="#D7EBEA" stroke="#6FC6EC" stroke-width="9"/>
<path d="M1420.5 1000C1420.5 1232.24 1232.24 1420.5 1000 1420.5C767.764 1420.5 579.5 1232.24 579.5 1000C579.5 767.764 767.764 579.5 1000 579.5C1232.24 579.5 1420.5 767.764 1420.5 1000Z" fill="#D7EBEA" stroke="#6FC6EC" stroke-width="9"/>
<path d="M1395.5 1000C1395.5 1218.43 1218.43 1395.5 1000 1395.5C781.571 1395.5 604.5 1218.43 604.5 1000C604.5 781.571 781.571 604.5 1000 604.5C1218.43 604.5 1395.5 781.571 1395.5 1000Z" fill="#D7EBEA" stroke="#6FC6EC" stroke-width="9"/>
<circle cx="1000" cy="1000" r="370.5" fill="#D7EBEA" stroke="#6FC6EC" stroke-width="9"/>
<path d="M1345.5 1000C1345.5 1190.81 1190.81 1345.5 1000 1345.5C809.186 1345.5 654.5 1190.81 654.5 1000C654.5 809.186 809.186 654.5 1000 654.5C1190.81 654.5 1345.5 809.186 1345.5 1000Z" fill="#D7EBEA" stroke="#6FC6EC" stroke-width="9"/>
<path d="M1320.5 1000C1320.5 1177.01 1177.01 1320.5 1000 1320.5C822.993 1320.5 679.5 1177.01 679.5 1000C679.5 822.993 822.993 679.5 1000 679.5C1177.01 679.5 1320.5 822.993 1320.5 1000Z" fill="#D7EBEA" stroke="#6FC6EC" stroke-width="9"/>
<path d="M1295.5 1000C1295.5 1163.2 1163.2 1295.5 1000 1295.5C836.8 1295.5 704.5 1163.2 704.5 1000C704.5 836.8 836.8 704.5 1000 704.5C1163.2 704.5 1295.5 836.8 1295.5 1000Z" fill="#D7EBEA" stroke="#6FC6EC" stroke-width="9"/>
<path d="M1270.5 1000C1270.5 1149.39 1149.39 1270.5 1000 1270.5C850.607 1270.5 729.5 1149.39 729.5 1000C729.5 850.607 850.607 729.5 1000 729.5C1149.39 729.5 1270.5 850.607 1270.5 1000Z" fill="#D7EBEA" stroke="#6FC6EC" stroke-width="9"/>
<circle cx="1000" cy="1000" r="245.5" fill="#D7EBEA" stroke="#6FC6EC" stroke-width="9"/>
<path d="M1220.5 1000C1220.5 1121.78 1121.78 1220.5 1000 1220.5C878.221 1220.5 779.5 1121.78 779.5 1000C779.5 878.221 878.221 779.5 1000 779.5C1121.78 779.5 1220.5 878.221 1220.5 1000Z" fill="#D7EBEA" stroke="#6FC6EC" stroke-width="9"/>
<path d="M1195.5 1000C1195.5 1107.97 1107.97 1195.5 1000 1195.5C892.028 1195.5 804.5 1107.97 804.5 1000C804.5 892.028 892.028 804.5 1000 804.5C1107.97 804.5 1195.5 892.028 1195.5 1000Z" fill="#D7EBEA" stroke="#6FC6EC" stroke-width="9"/>
<path d="M1170.5 1000C1170.5 1094.16 1094.16 1170.5 1000 1170.5C905.835 1170.5 829.5 1094.16 829.5 1000C829.5 905.835 905.835 829.5 1000 829.5C1094.16 829.5 1170.5 905.835 1170.5 1000Z" fill="#D7EBEA" stroke="#6FC6EC" stroke-width="9"/>
<path d="M1145.5 1000C1145.5 1080.36 1080.36 1145.5 1000 1145.5C919.643 1145.5 854.5 1080.36 854.5 1000C854.5 919.643 919.643 854.5 1000 854.5C1080.36 854.5 1145.5 919.643 1145.5 1000Z" fill="#D7EBEA" stroke="#6FC6EC" stroke-width="9"/>
<circle cx="1000" cy="1000" r="120.5" fill="#D7EBEA" stroke="#6FC6EC" stroke-width="9"/>
<path d="M1095.5 1000C1095.5 1052.74 1052.74 1095.5 1000 1095.5C947.257 1095.5 904.5 1052.74 904.5 1000C904.5 947.257 947.257 904.5 1000 904.5C1052.74 904.5 1095.5 947.257 1095.5 1000Z" fill="#D7EBEA" stroke="#6FC6EC" stroke-width="9"/>
<path d="M1070.5 1000C1070.5 1038.94 1038.94 1070.5 1000 1070.5C961.064 1070.5 929.5 1038.94 929.5 1000C929.5 961.064 961.064 929.5 1000 929.5C1038.94 929.5 1070.5 961.064 1070.5 1000Z" fill="#D7EBEA" stroke="#6FC6EC" stroke-width="9"/>
<path d="M1045.5 1000C1045.5 1025.13 1025.13 1045.5 1000 1045.5C974.871 1045.5 954.5 1025.13 954.5 1000C954.5 974.871 974.871 954.5 1000 954.5C1025.13 954.5 1045.5 974.871 1045.5 1000Z" fill="#D7EBEA" stroke="#6FC6EC" stroke-width="9"/>
<path d="M1020.5 1000C1020.5 1011.32 1011.32 1020.5 1000 1020.5C988.678 1020.5 979.5 1011.32 979.5 1000C979.5 988.678 988.678 979.5 1000 979.5C1011.32 979.5 1020.5 988.678 1020.5 1000Z" fill="#D7EBEA" stroke="#6FC6EC" stroke-width="9"/>
<circle cx="1000" cy="1000" r="400" fill="#D7EBEA"/>
<rect x="250" y="950" width="1500" height="125" rx="62.5" fill="#D7EBEA"/>
</svg>
